<svg width="31" height="31" viewBox="0 0 31 31" fill="none" xmlns="http://www.w3.org/2000/svg">
<rect x="0.246094" y="0.410767" width="30.15" height="30.15" rx="8" fill="#24BC8A"/>
<path d="M15.5654 23.4111L15.488 23.299C14.9508 22.521 14.6822 22.132 14.3273 21.8504C14.0132 21.6011 13.6512 21.414 13.2621 21.2999C12.8225 21.1711 12.3383 21.1711 11.3699 21.1711H10.3067C9.44048 21.1711 9.00738 21.1711 8.67653 21.0083C8.3855 20.8651 8.14889 20.6367 8.00061 20.3557C7.83203 20.0363 7.83203 19.6181 7.83203 18.7817V12.3604C7.83203 11.5241 7.83203 11.1059 8.00061 10.7864C8.14889 10.5055 8.3855 10.277 8.67653 10.1338C9.00738 9.97107 9.44048 9.97107 10.3067 9.97107H10.616C12.3485 9.97107 13.2147 9.97107 13.8764 10.2966C14.4584 10.5829 14.9316 11.0398 15.2282 11.6018C15.5654 12.2407 15.5654 13.077 15.5654 14.7497M15.5654 23.4111V14.7497M15.5654 23.4111L15.6427 23.299C16.1799 22.521 16.4485 22.132 16.8034 21.8504C17.1176 21.6011 17.4795 21.414 17.8687 21.2999C18.3082 21.1711 18.7924 21.1711 19.7608 21.1711H20.824C21.6902 21.1711 22.1234 21.1711 22.4542 21.0083C22.7452 20.8651 22.9818 20.6367 23.1301 20.3557C23.2987 20.0363 23.2987 19.6181 23.2987 18.7817V12.3604C23.2987 11.5241 23.2987 11.1059 23.1301 10.7864C22.9818 10.5055 22.7452 10.277 22.4542 10.1338C22.1234 9.97107 21.6902 9.97107 20.824 9.97107H20.5147C18.7823 9.97107 17.9161 9.97107 17.2544 10.2966C16.6723 10.5829 16.1991 11.0398 15.9025 11.6018C15.5654 12.2407 15.5654 13.077 15.5654 14.7497" stroke="white" stroke-width="1.31083" stroke-linecap="round" stroke-linejoin="round"/>
</svg>
